<svg xmlns="http://www.w3.org/2000/svg" xmlns:xlink="http://www.w3.org/1999/xlink" width="1446px" height="1172px" viewBox="1770.5 818.5 2279.199951171875 1846.699951171875" preserveAspectRatio="xMidYMid meet">
  <polygon style="stroke:black;fill:#c17347;stroke-width:1px" id="e3_polygon" points="1991.23,1646.39,2007.23,1730.39,2047.23,1774.39,2079.23,1798.39,2111.23,1806.39,2251.23,1838.39,2343.23,1898.39,2419.23,1995.15,2722.01,2267.76,2750.01,2319.76,2854.01,2410.01,2965.95,2489.48,3113.95,2565.48,3149.95,2565.48,3289.95,2621.48,3337.95,2625.48,3373.95,2613.48,3369.95,2585.48,3321.95,2525.48,3321.95,2485.48,3293.95,2461.48,3249.95,2417.48,3201.95,2317.48,3121.95,2185.48,3105.95,2113.89,3105.95,1985.89,3101.95,1929.89,3165.95,1745.89,3165.95,1697.86,3185.95,1687.9,3197.95,1663.9,3197.95,1643.9,3189.95,1623.9,3209.95,1599.9,3209.95,1543.9,3173.95,1515.9,3161.95,1507.9,3225.95,1463.9,3213.95,1459.9,3277.95,1427.9,3821.95,1127.91,3785.95,1131.91,3261.95,1415.9,3193.95,1447.9,3173.95,1423.9,3113.95,1463.9,3041.95,1455.9,2973.95,1411.9,2825.95,1339.9,2713.95,1296.92,2701.95,1268.92,2629.95,1244.92,2577.95,1216.92,2541.95,1152.92,2517.95,1148.92,2521.95,1104.92,2497.95,1088.92,2449.95,964.92,2445.95,896.92,2405.95,864.92,2369.95,884.92,2353.95,972.92,2217.95,1188.92,2213.95,1260.92,2189.95,1292.92,2145.95,1408.92,2125.95,1432.92,2045.95,1444.93,1997.95,1488.93,1961.95,1520.93,1957.95,1576.93" />
</svg>